<svg width="15" height="9" viewBox="0 0 15 9" fill="none" xmlns="http://www.w3.org/2000/svg">
<path d="M6.63597 8.41073C6.68994 8.46808 6.75689 8.51164 6.8312 8.53774C6.9055 8.56385 6.98499 8.57173 7.06297 8.56073H7.06597C7.18063 8.54731 7.28688 8.49383 7.36597 8.40973L13.849 1.50373C13.9477 1.39877 14.0021 1.2598 14.001 1.11573C14.002 0.971679 13.9476 0.832753 13.849 0.727732C13.8027 0.677135 13.7464 0.636728 13.6836 0.609083C13.6209 0.581439 13.553 0.567162 13.4845 0.567162C13.4159 0.567162 13.3481 0.581439 13.2853 0.609083C13.2226 0.636728 13.1663 0.677135 13.12 0.727732L7.00097 7.24573L0.880968 0.726731C0.834684 0.676134 0.778373 0.635727 0.715618 0.608083C0.652864 0.580438 0.585042 0.566162 0.516468 0.566162C0.447895 0.566162 0.380072 0.580438 0.317318 0.608083C0.254564 0.635727 0.198253 0.676134 0.151968 0.726731C0.0545307 0.832336 0.000905838 0.971047 0.00196863 1.11473C0.00196863 1.25473 0.0519682 1.39473 0.151968 1.50273L6.63697 8.40973L6.63597 8.41073Z" fill="#999993"/>
</svg>
