<svg width="59" height="60" viewBox="0 0 59 60" fill="none" xmlns="http://www.w3.org/2000/svg">
<g clip-path="url(#clip0_1_669)">
<path d="M22.0077 38.6383C21.3209 38.6383 20.7173 38.1596 20.5924 37.452L17.6578 21.5509L5.29492 19.2407C4.50403 19.095 4.00452 18.3457 4.15021 17.5548C4.2959 16.7639 5.04516 16.2644 5.83606 16.4101L19.1563 18.8868C19.7391 18.9909 20.197 19.4488 20.3011 20.0315L23.423 36.9108C23.5687 37.7017 23.0484 38.451 22.2783 38.5967C22.195 38.5967 22.1118 38.6175 22.0077 38.6175V38.6383Z" fill="#FFFEF3"/>
<path d="M18.8871 21.7596C18.4084 21.7596 17.9297 21.5098 17.6592 21.0727C17.2429 20.3859 17.4511 19.5118 18.1379 19.0955L29.6891 12.0191C30.3759 11.6028 31.25 11.811 31.6663 12.4978C32.0826 13.1846 31.8744 14.0588 31.1876 14.475L19.6364 21.5514C19.4075 21.6971 19.1369 21.7596 18.8871 21.7596Z" fill="#FFFEF3"/>
<path d="M26.7518 34.3088L22.0065 37.2227L8.68617 34.7459L5.56422 17.8666L17.1362 10.7902L30.4565 13.267L32.5378 24.5476L35.8471 23.7983L33.7866 12.6426C33.5368 11.2689 32.4545 10.1866 31.0809 9.93688L17.7606 7.46014C17.5525 7.41852 17.3444 7.39771 17.1362 7.39771C16.5118 7.39771 15.9083 7.56421 15.3671 7.89722L3.79512 14.9528C2.60879 15.6813 1.9844 17.0757 2.23415 18.4494L5.3561 35.3287C5.60585 36.7023 6.68812 37.7846 8.06178 38.0344L21.3821 40.5111C21.5902 40.5527 21.7983 40.5735 22.0065 40.5735C22.6308 40.5735 23.2344 40.407 23.7756 40.074L26.1066 38.6379L26.7518 34.2672V34.3088Z" fill="#FFFEF3"/>
<path d="M41.2599 22.5504L53.0608 29.2106L50.5633 46.1939L37.3263 49.1702L25.5253 42.51L28.0229 25.5267L41.2599 22.5504ZM41.2599 19.1579C41.0101 19.1579 40.7604 19.1787 40.5106 19.2411L27.2736 22.2174C25.8999 22.5296 24.8801 23.6327 24.672 25.0271L22.1744 42.0105C21.9663 43.405 22.6323 44.7578 23.8603 45.4446L35.6612 52.1048C36.1815 52.3962 36.7435 52.5419 37.3263 52.5419C37.576 52.5419 37.8258 52.521 38.0755 52.4586L51.3126 49.4824C52.6862 49.1702 53.706 48.0671 53.9142 46.6726L56.4117 29.6892C56.6199 28.2948 55.9538 26.9419 54.7259 26.2551L42.9249 19.595C42.4046 19.3036 41.8427 19.1579 41.2599 19.1579Z" fill="#FFFEF3"/>
<path d="M37.3459 50.6061C37.3459 50.6061 37.2002 50.6061 37.1378 50.6061C36.3469 50.4812 35.8057 49.7528 35.9306 48.9619L38.2825 32.9567L27.3349 26.7753C26.648 26.3798 26.3983 25.5057 26.7937 24.8189C27.1892 24.132 28.0633 23.8823 28.7501 24.2777L40.5511 30.9379C41.0714 31.2293 41.3628 31.812 41.2587 32.3948L38.7612 49.3781C38.6571 50.0858 38.0327 50.6061 37.3459 50.6061Z" fill="#FFFEF3"/>
<path d="M39.8416 33.6224C39.1755 33.6224 38.5928 33.1645 38.4471 32.4985C38.2806 31.7284 38.7593 30.9583 39.5294 30.771L52.7664 27.7947C53.5365 27.6282 54.3066 28.1069 54.4939 28.877C54.6604 29.6471 54.1817 30.4172 53.4116 30.6045L40.1746 33.5807C40.0705 33.6016 39.9664 33.6224 39.8624 33.6224H39.8416Z" fill="#FFFEF3"/>
<path d="M20.467 39.3877C20.1964 39.3253 19.905 39.242 19.6345 39.1796C19.4055 39.1171 19.135 39.1171 18.8852 39.0339C18.8436 39.0339 18.802 39.0339 18.7603 39.0339C18.6355 39.0339 18.5106 39.0339 18.3857 39.0339C18.2608 39.0339 18.1568 39.0339 18.0319 39.0339C18.0319 39.0339 18.0111 39.0339 17.9903 39.0339C17.9486 39.0339 17.8862 39.0339 17.8446 39.0339L0.569823 56.3294C-0.0961911 56.9954 -0.0961911 58.0569 0.569823 58.7229C0.90283 59.0559 1.3399 59.2224 1.75616 59.2224C2.17242 59.2224 2.6303 59.0559 2.9425 58.7229L21.9031 39.7623C21.4036 39.6583 20.9249 39.5334 20.4462 39.4085L20.467 39.3877Z" fill="#FFFEF3"/>
<path d="M58.0775 1.21631C57.4115 0.550293 56.35 0.550293 55.684 1.21631L36.1406 20.7597C36.8066 20.5932 37.4935 20.4683 38.1595 20.4058C39.0336 20.3226 40.0743 20.3642 40.9068 20.7805L58.0775 3.6098C58.7435 2.94378 58.7435 1.88232 58.0775 1.21631Z" fill="#FFFEF3"/>
</g>
<defs>
<clipPath id="clip0_1_669">
<rect width="58.4844" height="58.4844" fill="white" transform="translate(0.0703125 0.716797)"/>
</clipPath>
</defs>
</svg>
