<svg width="63" height="58" viewBox="0 0 63 58" fill="none" xmlns="http://www.w3.org/2000/svg">
<g clip-path="url(#clip0_1_663)">
<path d="M19.351 35.3937C28.6467 35.3937 36.1824 27.858 36.1824 18.5623C36.1824 9.26652 28.6467 1.73083 19.351 1.73083C10.0552 1.73083 2.51953 9.26652 2.51953 18.5623C2.51953 27.858 10.0552 35.3937 19.351 35.3937Z" stroke="#FFFEF3" stroke-width="3.33076" stroke-miterlimit="10"/>
<path d="M43.6908 35.3937C52.9865 35.3937 60.5222 27.858 60.5222 18.5623C60.5222 9.26652 52.9865 1.73083 43.6908 1.73083C34.3951 1.73083 26.8594 9.26652 26.8594 18.5623C26.8594 27.858 34.3951 35.3937 43.6908 35.3937Z" stroke="#FFFEF3" stroke-width="3.33076" stroke-miterlimit="10"/>
<path d="M31.5189 55.489C40.8147 55.489 48.3503 47.9533 48.3503 38.6576C48.3503 29.3619 40.8147 21.8262 31.5189 21.8262C22.2232 21.8262 14.6875 29.3619 14.6875 38.6576C14.6875 47.9533 22.2232 55.489 31.5189 55.489Z" stroke="#FFFEF3" stroke-width="3.33076" stroke-miterlimit="10"/>
</g>
<defs>
<clipPath id="clip0_1_663">
<rect width="61.3303" height="57.0892" fill="white" transform="translate(0.855469 0.0656738)"/>
</clipPath>
</defs>
</svg>
