<svg width="50" height="67" viewBox="0 0 50 67" fill="none" xmlns="http://www.w3.org/2000/svg">
<g clip-path="url(#clip0_1_653)">
<path d="M9.80331 66.586C8.74378 66.586 7.86967 66.2682 7.73722 65.1822C7.63127 64.467 5.61816 47.2761 28.2921 23.5426C29.7755 22.0063 32.7951 19.3045 36.0267 15.7551C36.6889 15.0399 37.8014 14.4571 38.5696 15.0929C39.3112 15.7286 38.8874 17.1325 38.1722 18.2715C36.477 20.9733 32.8481 24.9995 31.4177 26.5093C10.3331 48.574 12.0018 64.467 12.0018 64.6259C12.1343 65.7914 11.2602 66.4006 10.0682 66.5596C9.96224 66.5596 9.88277 66.5596 9.77682 66.5596L9.80331 66.586Z" fill="#FFFEF3"/>
<path d="M18.41 57.9769C15.2579 57.9769 12.3177 57.2353 9.8013 55.7784C5.27181 53.1561 2.01375 47.8319 1.08667 41.5542C-0.105306 33.5548 2.46405 25.4758 8.15903 19.3835C15.1254 11.9139 23.3368 9.29152 31.2568 6.77513C35.9452 5.29179 40.7661 3.72898 45.4545 1.18611C46.0637 0.841762 46.8054 0.841762 47.4411 1.15962C48.0768 1.47748 48.5006 2.08671 48.6066 2.7754C48.739 3.72898 51.9706 26.35 43.3619 41.4483C38.8324 49.3683 31.8395 55.1162 24.1579 57.2088C22.1978 57.7385 20.2642 58.0034 18.41 58.0034V57.9769ZM44.6599 6.4043C40.5807 8.31145 36.5015 9.60938 32.5547 10.8808C24.8201 13.3442 17.5094 15.6752 11.2846 22.3237C6.51676 27.436 4.34472 34.217 5.32479 40.9185C6.06646 45.9248 8.52987 50.0834 11.9469 52.0436C14.9665 53.7918 18.9133 54.1361 23.0454 53.0236C29.5351 51.2754 35.7333 46.1367 39.6271 39.3027C45.7459 28.575 45.2161 12.9204 44.6599 6.4043Z" fill="#FFFEF3"/>
</g>
<defs>
<clipPath id="clip0_1_653">
<rect width="48.5" height="65.6644" fill="white" transform="translate(0.796875 0.921875)"/>
</clipPath>
</defs>
</svg>
