<svg width="25" height="25" viewBox="0 0 25 25" fill="none" xmlns="http://www.w3.org/2000/svg">
<g clip-path="url(#clip0_31_2467)">
<path d="M12.5 2.68779C15.7063 2.68779 16.0859 2.70186 17.3469 2.75811C18.5188 2.80967 19.1516 3.00654 19.5734 3.17061C20.1313 3.38623 20.5344 3.64873 20.9516 4.06592C21.3734 4.48779 21.6313 4.88623 21.8469 5.44404C22.0109 5.86592 22.2078 6.50342 22.2594 7.67061C22.3156 8.93623 22.3297 9.31592 22.3297 12.5175C22.3297 15.7237 22.3156 16.1034 22.2594 17.3644C22.2078 18.5362 22.0109 19.169 21.8469 19.5909C21.6313 20.1487 21.3687 20.5519 20.9516 20.969C20.5297 21.3909 20.1313 21.6487 19.5734 21.8644C19.1516 22.0284 18.5141 22.2253 17.3469 22.2769C16.0813 22.3331 15.7016 22.3472 12.5 22.3472C9.29375 22.3472 8.91406 22.3331 7.65313 22.2769C6.48125 22.2253 5.84844 22.0284 5.42656 21.8644C4.86875 21.6487 4.46563 21.3862 4.04844 20.969C3.62656 20.5472 3.36875 20.1487 3.15313 19.5909C2.98906 19.169 2.79219 18.5315 2.74063 17.3644C2.68438 16.0987 2.67031 15.719 2.67031 12.5175C2.67031 9.31123 2.68438 8.93154 2.74063 7.67061C2.79219 6.49873 2.98906 5.86592 3.15313 5.44404C3.36875 4.88623 3.63125 4.48311 4.04844 4.06592C4.47031 3.64404 4.86875 3.38623 5.42656 3.17061C5.84844 3.00654 6.48594 2.80967 7.65313 2.75811C8.91406 2.70186 9.29375 2.68779 12.5 2.68779ZM12.5 0.526855C9.24219 0.526855 8.83438 0.540918 7.55469 0.597168C6.27969 0.653418 5.40313 0.859668 4.64375 1.15498C3.85156 1.46436 3.18125 1.87217 2.51563 2.54248C1.84531 3.20811 1.4375 3.87842 1.12813 4.66592C0.832812 5.42998 0.626563 6.30186 0.570313 7.57686C0.514063 8.86123 0.5 9.26904 0.5 12.5269C0.5 15.7847 0.514063 16.1925 0.570313 17.4722C0.626563 18.7472 0.832812 19.6237 1.12813 20.3831C1.4375 21.1753 1.84531 21.8456 2.51563 22.5112C3.18125 23.1769 3.85156 23.5894 4.63906 23.894C5.40313 24.1894 6.275 24.3956 7.55 24.4519C8.82969 24.5081 9.2375 24.5222 12.4953 24.5222C15.7531 24.5222 16.1609 24.5081 17.4406 24.4519C18.7156 24.3956 19.5922 24.1894 20.3516 23.894C21.1391 23.5894 21.8094 23.1769 22.475 22.5112C23.1406 21.8456 23.5531 21.1753 23.8578 20.3878C24.1531 19.6237 24.3594 18.7519 24.4156 17.4769C24.4719 16.1972 24.4859 15.7894 24.4859 12.5315C24.4859 9.27373 24.4719 8.86592 24.4156 7.58623C24.3594 6.31123 24.1531 5.43467 23.8578 4.67529C23.5625 3.87842 23.1547 3.20811 22.4844 2.54248C21.8188 1.87686 21.1484 1.46436 20.3609 1.15967C19.5969 0.864355 18.725 0.658105 17.45 0.601855C16.1656 0.540918 15.7578 0.526855 12.5 0.526855Z" fill="#333333"/>
<path d="M12.5 6.36279C9.09688 6.36279 6.33594 9.12373 6.33594 12.5269C6.33594 15.93 9.09688 18.6909 12.5 18.6909C15.9031 18.6909 18.6641 15.93 18.6641 12.5269C18.6641 9.12373 15.9031 6.36279 12.5 6.36279ZM12.5 16.5253C10.2922 16.5253 8.50156 14.7347 8.50156 12.5269C8.50156 10.319 10.2922 8.52842 12.5 8.52842C14.7078 8.52842 16.4984 10.319 16.4984 12.5269C16.4984 14.7347 14.7078 16.5253 12.5 16.5253Z" fill="#333333"/>
<path d="M20.3469 6.119C20.3469 6.91587 19.7 7.55806 18.9078 7.55806C18.1109 7.55806 17.4688 6.91118 17.4688 6.119C17.4688 5.32212 18.1156 4.67993 18.9078 4.67993C19.7 4.67993 20.3469 5.32681 20.3469 6.119Z" fill="#333333"/>
</g>
<defs>
<clipPath id="clip0_31_2467">
<rect width="24" height="24" fill="white" transform="translate(0.5 0.526855)"/>
</clipPath>
</defs>
</svg>
