<svg class="logo__img" width="49" height="48" viewBox="0 0 49 48" fill="none" xmlns="http://www.w3.org/2000/svg">
<path fill-rule="evenodd" clip-rule="evenodd" d="M19.1512 9.10271V8.06335C10.295 13.4983 14.2575 13.6283 5.37966 8.02004V20.6439C5.37966 20.9254 5.16313 21.142 4.88163 21.142H1.52537C1.24388 21.142 1.02734 20.9254 1.02734 20.6439V3.88426C1.02734 3.60276 1.24388 3.38623 1.52537 3.38623H5.6395C5.6395 3.38623 5.76942 3.38623 5.81273 3.42954C6.9387 3.99252 10.728 6.91572 12.2005 6.85076C12.2871 6.85076 12.352 6.85076 12.4386 6.85076C13.8894 6.93737 17.5488 3.97087 18.6531 3.42954C18.7181 3.38623 18.7614 3.38623 18.8264 3.38623H22.9405C23.222 3.38623 23.4385 3.60276 23.4385 3.88426V20.6439C23.4385 20.9254 23.222 21.142 22.9405 21.142H19.6059C19.3244 21.142 19.1079 20.9254 19.1079 20.6439V9.10271H19.1512Z"/>
<path fill-rule="evenodd" clip-rule="evenodd" d="M29.6086 19.8428C27.8114 18.2837 26.7936 15.9452 26.707 12.8054V3.71103C26.707 3.55946 26.8586 3.38623 27.0968 3.38623H30.4747C30.7129 3.38623 30.8645 3.55946 30.8645 3.71103V12.8054C30.8645 14.8841 31.2975 16.6164 32.5318 17.5692C33.7227 18.4786 34.6971 18.7384 37.079 18.7384C39.4608 18.7384 40.4352 18.4786 41.6262 17.5692C42.8604 16.6164 43.2935 14.8841 43.2935 12.8054V3.75434C43.2935 3.60276 43.4234 3.42954 43.6832 3.42954H47.0612C47.2993 3.42954 47.4509 3.60276 47.4509 3.75434V12.4373C47.4509 15.7719 46.4116 18.2404 44.5494 19.8644C42.6655 21.5101 40.6951 22.3978 37.1006 22.3978C33.5062 22.3978 31.5357 21.5101 29.6519 19.8644"/>
<path fill-rule="evenodd" clip-rule="evenodd" d="M19.0192 35.1735V28.6991H9.75154C9.44839 28.6991 9.18855 28.4393 9.18855 28.1361V25.646C9.18855 25.3428 9.44839 25.083 9.75154 25.083H23.0034C23.3065 25.083 23.5014 25.3212 23.5014 25.5161V34.6538C23.5014 38.0317 22.592 40.262 20.9896 41.6911C19.3873 43.1202 17.157 44.073 13.9306 44.073C11.0507 44.073 8.75548 43.445 7.00157 42.319C5.29095 41.2364 4.10002 39.3525 3.79688 36.1479C3.79688 35.953 3.9268 35.7148 4.20829 35.6715L7.5429 35.1951C7.84605 35.1518 8.08423 35.3683 8.12754 35.5849C8.32242 37.1439 8.71218 38.6163 9.66492 39.5041C10.6177 40.3919 11.9818 40.2836 13.7357 40.2836C15.7062 40.2836 16.8971 40.2836 17.8282 39.3092C18.7593 38.3348 19.0408 36.8191 19.0408 35.1735"/>
<path fill-rule="evenodd" clip-rule="evenodd" d="M26.1445 34.567C26.1445 31.4489 27.2488 28.9372 29.1543 27.1832C31.0598 25.4293 33.7882 24.4116 37.0795 24.4116C40.3708 24.4116 43.0991 25.4293 44.9829 27.1832C46.8668 28.9372 47.9711 31.4706 47.9711 34.567C47.9711 37.6635 46.8668 40.1752 44.9829 41.8859C43.0991 43.6181 40.3708 44.6142 37.0795 44.6142C33.7882 44.6142 31.0382 43.5965 29.1543 41.8642C27.2705 40.1319 26.1445 37.6418 26.1445 34.567ZM43.5538 34.5021C43.5538 32.4233 43.1424 30.821 42.0381 29.76C40.9337 28.699 39.2664 28.3092 37.0795 28.3092C34.8925 28.3092 33.2252 28.699 32.1208 29.76C31.0165 30.821 30.6051 32.4233 30.6051 34.5021C30.6051 36.5808 31.0165 38.3997 32.1208 39.4607C33.2252 40.5217 34.8925 40.9114 37.0795 40.9114C39.2664 40.9114 40.9337 40.5217 42.0381 39.4607C43.1424 38.3997 43.5538 36.5808 43.5538 34.5021Z"/>
</svg>
