<svg width="1321" height="272" viewBox="0 0 1321 272" fill="none" xmlns="http://www.w3.org/2000/svg">
<path fill-rule="evenodd" clip-rule="evenodd" d="M253.858 85.4015V72.967C130.147 149.053 185.438 150.683 61.2139 72.2426V263.831C61.2139 267.362 58.3467 270.199 54.8457 270.199H6.79784C3.26669 270.199 0.429688 267.332 0.429688 263.831V10.4323C0.429688 7.74617 2.60271 5.54297 5.31898 5.54297H65.1072C65.9221 5.54297 66.8275 5.75424 67.6424 6.26731C83.5477 14.1143 136.274 55.1301 156.978 54.1039C158.094 54.0134 159.211 54.1039 160.358 54.1039C180.76 55.2206 231.856 13.9332 247.339 6.26731C248.154 5.75424 248.969 5.54297 249.874 5.54297H310.145C312.62 5.54297 314.642 7.56509 314.642 10.0399V263.831C314.642 267.362 311.775 270.199 308.274 270.199H260.347C256.816 270.199 253.979 267.332 253.979 263.831V85.4015H253.888H253.858Z" fill="#333333"/>
<path fill-rule="evenodd" clip-rule="evenodd" d="M411.433 235.823C386.443 213.912 371.957 181.377 370.84 137.524V10.3418C370.84 8.19892 372.771 5.75427 376.152 5.75427H423.355C426.735 5.75427 428.666 8.19892 428.666 10.3418V137.403C428.666 166.377 434.672 190.642 452.026 203.892C468.535 216.628 482.418 220.31 515.557 220.31C548.695 220.31 562.579 216.537 579.088 203.892C596.321 190.642 602.448 166.377 602.448 137.403V10.7341C602.448 8.59127 604.379 6.14662 607.759 6.14662H654.962C658.342 6.14662 660.274 8.59127 660.274 10.7341V132.001C660.274 178.6 645.576 212.976 619.59 235.823C593.393 258.76 565.748 271.104 515.557 271.104C465.366 271.104 437.63 258.881 411.433 235.823Z" fill="#333333"/>
<path fill-rule="evenodd" clip-rule="evenodd" d="M914.79 147.001V56.6393H785.163C780.787 56.6393 777.316 53.0779 777.316 48.7922V14.0239C777.316 9.64768 780.877 6.17688 785.163 6.17688H970.353C974.638 6.17688 977.294 9.34587 977.294 12.1829V139.969C977.294 187.081 964.558 218.499 942.224 238.388C919.679 258.368 888.472 271.527 843.593 271.527C803.211 271.527 771.189 262.744 746.622 247.05C722.749 231.749 706.24 205.733 701.864 160.673C701.562 157.926 703.705 154.757 707.689 154.154L754.288 147.423C758.664 146.82 761.924 149.777 762.346 152.826C765.002 174.435 770.495 195.26 783.775 207.483C797.024 219.706 816.31 218.288 840.575 218.288C868.1 218.288 884.639 218.288 897.677 204.737C910.746 191.276 914.82 169.848 914.82 147.001H914.79Z" fill="#333333"/>
<path fill-rule="evenodd" clip-rule="evenodd" d="M1027.44 136.852C1027.44 95.2017 1042.31 61.3376 1067.72 37.7774C1093.17 14.2172 1129.72 0.526855 1174.04 0.526855C1218.35 0.526855 1254.82 14.2172 1280.14 37.7774C1305.38 61.2508 1320.23 95.0859 1320.23 136.852C1320.23 178.617 1305.47 211.961 1280.23 235.058C1254.9 258.242 1218.52 271.527 1174.12 271.527C1129.72 271.527 1093.25 257.923 1067.81 234.653C1042.28 211.382 1027.41 177.923 1027.41 136.852H1027.44ZM1260.69 136.07C1260.69 108.197 1255.22 86.6923 1240.35 72.3941C1225.58 58.2117 1203.27 52.9439 1173.95 52.9439C1144.63 52.9439 1122.4 58.2117 1107.55 72.3941C1092.67 86.6633 1087.2 108.082 1087.2 136.07C1087.2 164.059 1092.67 188.4 1107.55 202.67C1122.31 216.852 1144.63 222.12 1173.95 222.12C1203.27 222.12 1225.5 216.852 1240.35 202.67C1255.11 188.4 1260.69 164.03 1260.69 136.07Z" fill="#333333"/>
</svg>
