<svg width="799" height="172" viewBox="0 0 799 172" fill="none" xmlns="http://www.w3.org/2000/svg">
<path fill-rule="evenodd" clip-rule="evenodd" d="M153.662 51.2933V43.7786C78.8978 89.7607 112.313 90.7456 37.2385 43.3408V159.126C37.2385 161.26 35.5057 162.975 33.39 162.975H4.35247C2.21843 162.975 0.503906 161.242 0.503906 159.126V5.98607C0.503906 4.36274 1.81716 3.03125 3.45873 3.03125H39.5914C40.0839 3.03125 40.6311 3.15893 41.1236 3.469C50.7358 8.2113 82.6005 32.999 95.1128 32.3788C95.7877 32.3241 96.4626 32.3788 97.1557 32.3788C109.486 33.0537 140.365 8.10187 149.722 3.469C150.215 3.15893 150.707 3.03125 151.254 3.03125H187.679C189.175 3.03125 190.397 4.25331 190.397 5.74896V159.126C190.397 161.26 188.664 162.975 186.548 162.975H157.584C155.45 162.975 153.735 161.242 153.735 159.126V51.2933H153.68H153.662Z" fill="#333333"/>
<path fill-rule="evenodd" clip-rule="evenodd" d="M248.892 142.2C233.789 128.958 225.034 109.296 224.359 82.7934V5.9316C224.359 4.63659 225.527 3.15918 227.57 3.15918H256.096C258.139 3.15918 259.306 4.63659 259.306 5.9316V82.7204C259.306 100.23 262.936 114.895 273.424 122.902C283.401 130.599 291.791 132.825 311.818 132.825C331.845 132.825 340.236 130.545 350.213 122.902C360.628 114.895 364.33 100.23 364.33 82.7204V6.16872C364.33 4.8737 365.498 3.39629 367.54 3.39629H396.067C398.11 3.39629 399.277 4.8737 399.277 6.16872V79.4555C399.277 107.618 390.395 128.392 374.69 142.2C358.858 156.062 342.151 163.522 311.818 163.522C281.486 163.522 264.724 156.135 248.892 142.2Z" fill="#333333"/>
<path fill-rule="evenodd" clip-rule="evenodd" d="M553.092 88.5207V33.9112H474.753C472.108 33.9112 470.011 31.7589 470.011 29.1689V8.15685C470.011 5.51211 472.163 3.41455 474.753 3.41455H586.671C589.261 3.41455 590.866 5.32971 590.866 7.04424V84.2708C590.866 112.743 583.169 131.73 569.672 143.75C556.047 155.825 537.187 163.777 510.065 163.777C485.66 163.777 466.308 158.47 451.461 148.985C437.033 139.738 427.056 124.015 424.412 96.7832C424.229 95.1234 425.524 93.2082 427.932 92.8434L456.094 88.776C458.738 88.4112 460.708 90.1987 460.964 92.0409C462.569 105.1 465.888 117.686 473.914 125.073C481.921 132.46 493.576 131.603 508.241 131.603C524.875 131.603 534.871 131.603 542.75 123.413C550.648 115.278 553.11 102.328 553.11 88.5207H553.092Z" fill="#333333"/>
<path fill-rule="evenodd" clip-rule="evenodd" d="M621.166 82.3872C621.166 57.2162 630.157 36.7506 645.515 22.5122C660.89 8.2737 682.983 0 709.763 0C736.543 0 758.583 8.2737 773.888 22.5122C789.141 36.6982 798.115 57.1463 798.115 82.3872C798.115 107.628 789.194 127.779 773.941 141.737C758.635 155.749 736.648 163.777 709.815 163.777C682.983 163.777 660.943 155.556 645.567 141.493C630.139 127.429 621.148 107.208 621.148 82.3872H621.166ZM762.134 81.9149C762.134 65.0701 758.828 52.0736 749.837 43.4326C740.916 34.8615 727.43 31.678 709.71 31.678C691.991 31.678 678.557 34.8615 669.584 43.4326C660.593 52.0561 657.287 65.0002 657.287 81.9149C657.287 98.8297 660.593 113.54 669.584 122.164C678.505 130.735 691.991 133.919 709.71 133.919C727.43 133.919 740.863 130.735 749.837 122.164C758.758 113.54 762.134 98.8122 762.134 81.9149Z" fill="#333333"/>
</svg>
