<?xml version="1.0" encoding="utf-8"?><svg viewBox="0 0 1321 272" xmlns="http://www.w3.org/2000/svg" xmlns:xlink="http://www.w3.org/1999/xlink"><style>:root>svg{display:none}:root>svg:target{display:block}</style><svg fill="none" viewBox="0 0 49 48" id="Logo_Stacked" xmlns="http://www.w3.org/2000/svg"><path fill-rule="evenodd" clip-rule="evenodd" d="M19.151 9.103v-1.04c-8.856 5.435-4.893 5.565-13.771-.043v12.624a.49.49 0 0 1-.498.498H1.525a.49.49 0 0 1-.498-.498V3.884a.49.49 0 0 1 .498-.498H5.64s.13 0 .173.044c1.126.563 4.915 3.486 6.388 3.42h.238c1.45.087 5.11-2.88 6.214-3.42.065-.044.108-.044.173-.044h4.114a.49.49 0 0 1 .498.498v16.76a.49.49 0 0 1-.497.498h-3.335a.49.49 0 0 1-.498-.498V9.103h.043ZM29.609 19.843c-1.798-1.56-2.815-3.898-2.902-7.038V3.711c0-.152.152-.325.39-.325h3.378c.238 0 .39.173.39.325v9.094c0 2.08.433 3.811 1.667 4.764 1.19.91 2.165 1.17 4.547 1.17 2.382 0 3.356-.26 4.547-1.17 1.234-.953 1.668-2.685 1.668-4.764v-9.05c0-.152.13-.325.39-.325h3.377c.238 0 .39.173.39.324v8.683c0 3.335-1.04 5.803-2.902 7.427-1.883 1.646-3.854 2.534-7.448 2.534-3.595 0-5.565-.888-7.45-2.534M19.02 35.173V28.7H9.751a.573.573 0 0 1-.563-.563v-2.49c0-.303.26-.563.563-.563h13.251c.303 0 .498.238.498.433v9.138c0 3.378-.909 5.608-2.511 7.037-1.603 1.43-3.833 2.382-7.06 2.382-2.88 0-5.175-.628-6.928-1.754-1.711-1.083-2.902-2.967-3.205-6.171a.48.48 0 0 1 .411-.477l3.335-.476a.522.522 0 0 1 .585.39c.194 1.559.584 3.031 1.537 3.92.953.887 2.317.779 4.07.779 1.971 0 3.162 0 4.093-.975.931-.974 1.213-2.49 1.213-4.136M26.145 34.567c0-3.118 1.104-5.63 3.01-7.384 1.905-1.754 4.633-2.771 7.925-2.771 3.29 0 6.02 1.017 7.903 2.771 1.884 1.754 2.988 4.288 2.988 7.384s-1.104 5.608-2.988 7.319c-1.884 1.732-4.612 2.728-7.903 2.728-3.292 0-6.042-1.017-7.926-2.75-1.884-1.732-3.01-4.222-3.01-7.297Zm17.409-.065c0-2.079-.412-3.681-1.516-4.742s-2.772-1.45-4.958-1.45c-2.188 0-3.855.389-4.96 1.45-1.103 1.061-1.515 2.663-1.515 4.742s.412 3.898 1.516 4.959c1.104 1.06 2.771 1.45 4.959 1.45 2.186 0 3.854-.39 4.958-1.45 1.104-1.061 1.516-2.88 1.516-4.959Z" fill="#333"/></svg><svg fill="none" viewBox="0 0 13 12" id="arrow-right" xmlns="http://www.w3.org/2000/svg"><g clip-path="url(#ba)"><path d="M7.724 1.272 12.5 6.024 7.724 10.8H6.14l4.32-4.224H.5V5.424h9.96L6.14 1.2h1.584v.072Z" fill="#FFFEF3"/></g><defs><clipPath id="ba"><path fill="#fff" transform="translate(.5)" d="M0 0h12v12H0z"/></clipPath></defs></svg><svg fill="none" viewBox="0 0 13 13" id="arrow-right-footer" xmlns="http://www.w3.org/2000/svg"><g clip-path="url(#aa)"><path d="m8.005 1.799 4.776 4.752-4.776 4.776H6.421l4.32-4.224H.781V5.95h9.96l-4.32-4.224h1.584v.072Z" fill="#999993"/></g><defs><clipPath id="aa"><path fill="#fff" transform="translate(.781 .527)" d="M0 0h12v12H0z"/></clipPath></defs></svg><svg fill="none" viewBox="0 0 50 67" id="benefits-1" xmlns="http://www.w3.org/2000/svg"><g clip-path="url(#ca)" fill="#FFFEF3"><path d="M9.803 66.586c-1.06 0-1.933-.318-2.066-1.404-.106-.715-2.119-17.906 20.555-41.64 1.483-1.536 4.503-4.238 7.735-7.787.662-.715 1.774-1.298 2.543-.662.741.636.317 2.04-.398 3.178-1.695 2.702-5.324 6.729-6.754 8.238-21.085 22.065-19.416 37.958-19.416 38.117.132 1.165-.742 1.775-1.934 1.934h-.291l.026.026Z"/><path d="M18.41 57.977c-3.152 0-6.092-.742-8.609-2.199-4.53-2.622-7.787-7.946-8.714-14.224-1.192-8 1.377-16.078 7.072-22.17 6.966-7.47 15.178-10.092 23.098-12.609 4.688-1.483 9.51-3.046 14.198-5.589.609-.344 1.35-.344 1.986-.026.636.317 1.06.927 1.166 1.615.132.954 3.364 23.575-5.245 38.673-4.53 7.92-11.523 13.668-19.204 15.76-1.96.53-3.894.795-5.748.795v-.026ZM44.66 6.404c-4.08 1.907-8.158 3.205-12.105 4.477-7.735 2.463-15.046 4.794-21.27 11.443-4.768 5.112-6.94 11.893-5.96 18.595.741 5.006 3.205 9.164 6.622 11.125 3.02 1.748 6.966 2.092 11.098.98 6.49-1.749 12.688-6.887 16.582-13.721 6.119-10.728 5.59-26.383 5.033-32.899Z"/></g><defs><clipPath id="ca"><path fill="#fff" transform="translate(.797 .922)" d="M0 0h48.5v65.664H0z"/></clipPath></defs></svg><svg fill="none" viewBox="0 0 59 60" id="benefits-2" xmlns="http://www.w3.org/2000/svg"><g clip-path="url(#da)" fill="#FFFEF3"><path d="M22.008 38.638c-.687 0-1.29-.478-1.416-1.186l-2.934-15.901-12.363-2.31a1.43 1.43 0 0 1-1.145-1.686 1.43 1.43 0 0 1 1.686-1.145l13.32 2.477c.583.104 1.041.562 1.145 1.145l3.122 16.879c.146.79-.375 1.54-1.145 1.686-.083 0-.166.02-.27.02v.021Z"/><path d="M18.887 21.76c-.479 0-.957-.25-1.228-.687a1.428 1.428 0 0 1 .479-1.977l11.551-7.077a1.428 1.428 0 0 1 1.977.479 1.428 1.428 0 0 1-.478 1.977l-11.552 7.076c-.229.146-.5.209-.749.209Z"/><path d="m26.752 34.309-4.745 2.914-13.32-2.477-3.123-16.88 11.572-7.076 13.32 2.477 2.082 11.28 3.31-.749-2.061-11.155a3.369 3.369 0 0 0-2.706-2.706L17.76 7.46a3.347 3.347 0 0 0-2.393.437L3.794 14.953a3.4 3.4 0 0 0-1.56 3.496l3.121 16.88a3.369 3.369 0 0 0 2.706 2.705l13.32 2.477a3.348 3.348 0 0 0 2.393-.437l2.332-1.436.645-4.37v.04Z"/><path d="m41.26 22.55 11.8 6.66-2.497 16.984-13.237 2.976-11.8-6.66 2.497-16.983L41.26 22.55Zm0-3.392c-.25 0-.5.02-.75.083l-13.236 2.976a3.371 3.371 0 0 0-2.602 2.81L22.174 42.01a3.347 3.347 0 0 0 1.686 3.435l11.801 6.66c.52.291 1.082.437 1.665.437.25 0 .5-.021.75-.083l13.237-2.977a3.371 3.371 0 0 0 2.601-2.81l2.498-16.983a3.347 3.347 0 0 0-1.686-3.434l-11.801-6.66a3.373 3.373 0 0 0-1.665-.437Z"/><path d="M37.346 50.606h-.208a1.437 1.437 0 0 1-1.207-1.644l2.352-16.005-10.948-6.182a1.436 1.436 0 0 1 1.415-2.497l11.801 6.66c.52.291.812.874.708 1.457L38.76 49.378a1.449 1.449 0 0 1-1.415 1.228Z"/><path d="M39.842 33.622a1.424 1.424 0 0 1-1.395-1.123 1.463 1.463 0 0 1 1.082-1.728l13.237-2.976c.77-.167 1.54.312 1.728 1.082.166.77-.312 1.54-1.082 1.728L40.175 33.58c-.104.02-.209.041-.313.041h-.02ZM20.467 39.388c-.27-.063-.562-.146-.832-.208-.23-.063-.5-.063-.75-.146h-1.04L.57 56.329a1.683 1.683 0 0 0 0 2.394 1.655 1.655 0 0 0 2.373 0l18.96-18.96c-.5-.105-.978-.23-1.457-.355l.021-.02ZM58.078 1.216a1.683 1.683 0 0 0-2.394 0L36.141 20.76a13.69 13.69 0 0 1 2.019-.354c.874-.083 1.914-.042 2.747.375L58.077 3.61a1.683 1.683 0 0 0 0-2.394Z"/></g><defs><clipPath id="da"><path fill="#fff" transform="translate(.07 .717)" d="M0 0h58.484v58.484H0z"/></clipPath></defs></svg><svg fill="none" viewBox="0 0 63 58" id="benefits-3" xmlns="http://www.w3.org/2000/svg"><g clip-path="url(#ea)" stroke="#FFFEF3" stroke-width="3.331" stroke-miterlimit="10"><path d="M19.351 35.394c9.296 0 16.831-7.536 16.831-16.832 0-9.295-7.535-16.831-16.831-16.831S2.52 9.267 2.52 18.562c0 9.296 7.535 16.832 16.831 16.832Z"/><path d="M43.69 35.394c9.297 0 16.832-7.536 16.832-16.832 0-9.295-7.535-16.831-16.831-16.831S26.859 9.267 26.859 18.562c0 9.296 7.536 16.832 16.832 16.832Z"/><path d="M31.519 55.489c9.296 0 16.831-7.536 16.831-16.831 0-9.296-7.535-16.832-16.831-16.832s-16.831 7.536-16.831 16.832c0 9.295 7.535 16.831 16.83 16.831Z"/></g><defs><clipPath id="ea"><path fill="#fff" transform="translate(.855 .066)" d="M0 0h61.33v57.089H0z"/></clipPath></defs></svg><svg fill="none" viewBox="0 0 25 25" id="instagram" xmlns="http://www.w3.org/2000/svg"><g clip-path="url(#fa)" fill="#333"><path d="M12.5 2.688c3.206 0 3.586.014 4.847.07 1.172.052 1.805.249 2.226.413a3.71 3.71 0 0 1 1.379.895c.421.422.68.82.895 1.378.164.422.36 1.06.412 2.227.057 1.265.07 1.645.07 4.846 0 3.207-.013 3.586-.07 4.847-.051 1.172-.248 1.805-.412 2.227a3.711 3.711 0 0 1-.895 1.378c-.422.422-.82.68-1.379.895-.421.164-1.059.361-2.226.413-1.266.056-1.645.07-4.847.07-3.206 0-3.586-.014-4.847-.07-1.172-.052-1.805-.249-2.226-.413a3.712 3.712 0 0 1-1.379-.895 3.69 3.69 0 0 1-.895-1.378c-.164-.422-.36-1.06-.412-2.227-.057-1.265-.07-1.645-.07-4.847 0-3.206.013-3.585.07-4.846.051-1.172.248-1.805.412-2.227.216-.558.478-.96.895-1.378a3.69 3.69 0 0 1 1.379-.895c.421-.164 1.059-.361 2.226-.413 1.261-.056 1.64-.07 4.847-.07Zm0-2.161c-3.258 0-3.666.014-4.945.07-1.275.056-2.152.263-2.911.558a5.857 5.857 0 0 0-2.128 1.387 5.88 5.88 0 0 0-1.388 2.124C.833 5.43.627 6.302.57 7.576.514 8.862.5 9.27.5 12.527c0 3.259.014 3.666.07 4.946.057 1.275.263 2.152.558 2.911.31.792.717 1.463 1.388 2.128a5.864 5.864 0 0 0 2.123 1.383c.764.295 1.636.502 2.911.558 1.28.056 1.688.07 4.945.07 3.258 0 3.666-.014 4.946-.07 1.275-.056 2.151-.263 2.91-.558a5.863 5.863 0 0 0 2.124-1.383 5.866 5.866 0 0 0 1.383-2.123c.295-.764.501-1.636.558-2.911.056-1.28.07-1.688.07-4.946 0-3.257-.014-3.665-.07-4.945-.057-1.275-.263-2.151-.558-2.91a5.62 5.62 0 0 0-1.374-2.134 5.866 5.866 0 0 0-2.123-1.382C19.597.864 18.725.658 17.45.602 16.166.54 15.758.527 12.5.527Z"/><path d="M12.5 6.363a6.166 6.166 0 0 0-6.164 6.164A6.166 6.166 0 0 0 12.5 18.69a6.166 6.166 0 0 0 6.164-6.164A6.166 6.166 0 0 0 12.5 6.363Zm0 10.162a3.999 3.999 0 1 1 .001-7.998 3.999 3.999 0 0 1-.001 7.998ZM20.347 6.119a1.44 1.44 0 1 1-2.879 0 1.44 1.44 0 0 1 2.879 0Z"/></g><defs><clipPath id="fa"><path fill="#fff" transform="translate(.5 .527)" d="M0 0h24v24H0z"/></clipPath></defs></svg><svg fill="none" viewBox="0 0 799 172" id="logo-big" xmlns="http://www.w3.org/2000/svg"><path fill-rule="evenodd" clip-rule="evenodd" d="M153.662 51.293V43.78C78.898 89.76 112.313 90.746 37.238 43.34v115.785a3.85 3.85 0 0 1-3.848 3.849H4.352a3.85 3.85 0 0 1-3.848-3.849V5.986a2.954 2.954 0 0 1 2.955-2.955H39.59c.493 0 1.04.128 1.533.438 9.612 4.742 41.476 29.53 53.989 28.91.675-.055 1.35 0 2.043 0 12.33.675 43.209-24.277 52.566-28.91.493-.31.985-.438 1.532-.438h36.425a2.725 2.725 0 0 1 2.718 2.718v153.377a3.85 3.85 0 0 1-3.849 3.849h-28.964a3.85 3.85 0 0 1-3.849-3.849V51.293h-.073ZM248.892 142.2c-15.103-13.242-23.858-32.904-24.533-59.407V5.932c0-1.295 1.168-2.773 3.211-2.773h28.526c2.043 0 3.21 1.478 3.21 2.773V82.72c0 17.51 3.63 32.175 14.118 40.182 9.977 7.697 18.367 9.923 38.394 9.923 20.027 0 28.418-2.28 38.395-9.923 10.415-8.007 14.117-22.672 14.117-40.182V6.17c0-1.295 1.168-2.773 3.21-2.773h28.527c2.043 0 3.21 1.478 3.21 2.773v73.286c0 28.163-8.882 48.937-24.587 62.745-15.832 13.862-32.539 21.322-62.872 21.322-30.332 0-47.094-7.387-62.926-21.322ZM553.092 88.52V33.912h-78.339a4.744 4.744 0 0 1-4.742-4.742V8.157a4.744 4.744 0 0 1 4.742-4.742h111.918c2.59 0 4.195 1.915 4.195 3.63V84.27c0 28.472-7.697 47.459-21.194 59.479-13.625 12.075-32.485 20.027-59.607 20.027-24.405 0-43.757-5.307-58.604-14.792-14.428-9.247-24.405-24.97-27.049-52.202-.183-1.66 1.112-3.575 3.52-3.94l28.162-4.067c2.644-.365 4.614 1.423 4.87 3.265 1.605 13.059 4.924 25.645 12.95 33.032 8.007 7.387 19.662 6.53 34.327 6.53 16.634 0 26.63 0 34.509-8.19 7.898-8.135 10.36-21.085 10.36-34.892h-.018ZM621.166 82.387c0-25.17 8.991-45.636 24.349-59.875C660.89 8.274 682.983 0 709.763 0s48.82 8.274 64.125 22.512c15.253 14.186 24.227 34.634 24.227 59.875s-8.921 45.392-24.174 59.35c-15.306 14.012-37.293 22.04-64.126 22.04-26.832 0-48.872-8.221-64.248-22.284-15.428-14.064-24.419-34.285-24.419-59.106h.018Zm140.968-.472c0-16.845-3.306-29.841-12.297-38.482-8.921-8.572-22.407-11.755-40.127-11.755-17.719 0-31.153 3.183-40.126 11.755-8.991 8.623-12.297 21.567-12.297 38.482s3.306 31.625 12.297 40.249c8.921 8.571 22.407 11.755 40.126 11.755 17.72 0 31.153-3.184 40.127-11.755 8.921-8.624 12.297-23.352 12.297-40.25Z" fill="#333"/></svg><svg fill="none" viewBox="0 0 1321 272" id="logo-footer" xmlns="http://www.w3.org/2000/svg"><path fill-rule="evenodd" clip-rule="evenodd" d="M253.858 85.401V72.968c-123.711 76.086-68.42 77.716-192.644-.724V263.83a6.37 6.37 0 0 1-6.368 6.368H6.798a6.37 6.37 0 0 1-6.368-6.368V10.432a4.888 4.888 0 0 1 4.889-4.889h59.788c.815 0 1.72.211 2.535.724 15.906 7.847 68.632 48.863 89.336 47.837 1.116-.09 2.233 0 3.38 0 20.402 1.117 71.498-40.17 86.981-47.837a4.569 4.569 0 0 1 2.535-.724h60.271a4.508 4.508 0 0 1 4.497 4.497V263.83a6.37 6.37 0 0 1-6.368 6.368h-47.927a6.37 6.37 0 0 1-6.368-6.368V85.401h-.121ZM411.433 235.823c-24.99-21.911-39.476-54.446-40.593-98.299V10.342c0-2.143 1.931-4.588 5.312-4.588h47.203c3.38 0 5.311 2.445 5.311 4.588v127.061c0 28.974 6.006 53.239 23.36 66.489 16.509 12.736 30.392 16.418 63.531 16.418 33.138 0 47.022-3.773 63.531-16.418 17.233-13.25 23.36-37.515 23.36-66.489V10.734c0-2.143 1.931-4.587 5.311-4.587h47.203c3.38 0 5.312 2.444 5.312 4.587v121.267c0 46.599-14.698 80.975-40.684 103.822-26.197 22.937-53.842 35.281-104.033 35.281s-77.927-12.223-104.124-35.281ZM914.79 147.001V56.639H785.163c-4.376 0-7.847-3.561-7.847-7.847V14.024c0-4.376 3.561-7.847 7.847-7.847h185.19c4.285 0 6.941 3.169 6.941 6.006v127.786c0 47.112-12.736 78.53-35.07 98.419-22.545 19.98-53.752 33.139-98.631 33.139-40.382 0-72.404-8.783-96.971-24.477-23.873-15.301-40.382-41.317-44.758-86.377-.302-2.747 1.841-5.916 5.825-6.519l46.599-6.731c4.376-.603 7.636 2.354 8.058 5.403 2.656 21.609 8.149 42.434 21.429 54.657 13.249 12.223 32.535 10.805 56.8 10.805 27.525 0 44.064 0 57.102-13.551 13.069-13.461 17.143-34.889 17.143-57.736h-.03ZM1027.44 136.852c0-41.65 14.87-75.514 40.28-99.075 25.45-23.56 62-37.25 106.32-37.25 44.31 0 80.78 13.69 106.1 37.25 25.24 23.474 40.09 57.309 40.09 99.075 0 41.765-14.76 75.109-40 98.206-25.33 23.184-61.71 36.469-106.11 36.469s-80.87-13.604-106.31-36.874c-25.53-23.271-40.4-56.73-40.4-97.801h.03Zm233.25-.782c0-27.873-5.47-49.378-20.34-63.676-14.77-14.182-37.08-19.45-66.4-19.45-29.32 0-51.55 5.268-66.4 19.45-14.88 14.27-20.35 35.688-20.35 63.676 0 27.989 5.47 52.33 20.35 66.6 14.76 14.182 37.08 19.45 66.4 19.45 29.32 0 51.55-5.268 66.4-19.45 14.76-14.27 20.34-38.64 20.34-66.6Z" fill="#333"/></svg><svg fill="none" viewBox="0 0 49 48" id="logo-img" xmlns="http://www.w3.org/2000/svg"><path fill-rule="evenodd" clip-rule="evenodd" d="M19.151 9.103v-1.04c-8.856 5.435-4.893 5.565-13.771-.043v12.624a.49.49 0 0 1-.498.498H1.525a.49.49 0 0 1-.498-.498V3.884a.49.49 0 0 1 .498-.498H5.64s.13 0 .173.044c1.126.563 4.915 3.486 6.388 3.42h.238c1.45.087 5.11-2.88 6.214-3.42.065-.044.108-.044.173-.044h4.114a.49.49 0 0 1 .498.498v16.76a.49.49 0 0 1-.497.498h-3.335a.49.49 0 0 1-.498-.498V9.103h.043ZM29.609 19.843c-1.798-1.56-2.815-3.898-2.902-7.038V3.711c0-.152.152-.325.39-.325h3.378c.238 0 .39.173.39.325v9.094c0 2.08.433 3.811 1.667 4.764 1.19.91 2.165 1.17 4.547 1.17 2.382 0 3.356-.26 4.547-1.17 1.234-.953 1.668-2.685 1.668-4.764v-9.05c0-.152.13-.325.39-.325h3.377c.238 0 .39.173.39.324v8.683c0 3.335-1.04 5.803-2.902 7.427-1.883 1.646-3.854 2.534-7.448 2.534-3.595 0-5.565-.888-7.45-2.534M19.02 35.173V28.7H9.751a.573.573 0 0 1-.563-.563v-2.49c0-.303.26-.563.563-.563h13.251c.303 0 .498.238.498.433v9.138c0 3.378-.909 5.608-2.511 7.037-1.603 1.43-3.833 2.382-7.06 2.382-2.88 0-5.175-.628-6.928-1.754-1.711-1.083-2.902-2.967-3.205-6.171a.48.48 0 0 1 .411-.477l3.335-.476a.522.522 0 0 1 .585.39c.194 1.559.584 3.031 1.537 3.92.953.887 2.317.779 4.07.779 1.971 0 3.162 0 4.093-.975.931-.974 1.213-2.49 1.213-4.136M26.145 34.567c0-3.118 1.104-5.63 3.01-7.384 1.905-1.754 4.633-2.771 7.925-2.771 3.29 0 6.02 1.017 7.903 2.771 1.884 1.754 2.988 4.288 2.988 7.384s-1.104 5.608-2.988 7.319c-1.884 1.732-4.612 2.728-7.903 2.728-3.292 0-6.042-1.017-7.926-2.75-1.884-1.732-3.01-4.222-3.01-7.297Zm17.409-.065c0-2.079-.412-3.681-1.516-4.742s-2.772-1.45-4.958-1.45c-2.188 0-3.855.389-4.96 1.45-1.103 1.061-1.515 2.663-1.515 4.742s.412 3.898 1.516 4.959c1.104 1.06 2.771 1.45 4.959 1.45 2.186 0 3.854-.39 4.958-1.45 1.104-1.061 1.516-2.88 1.516-4.959Z" fill="#333"/></svg><svg fill="none" viewBox="0 0 33 32" id="stress-img" xmlns="http://www.w3.org/2000/svg"><g clip-path="url(#ka)" fill="#787C63"><path d="M8.85 31.937c-.514 0-.938-.154-1.003-.681-.051-.348-1.028-8.692 9.978-20.213.72-.746 2.186-2.057 3.755-3.78.321-.347.861-.63 1.234-.322.36.309.154.99-.193 1.543-.823 1.312-2.584 3.266-3.279 4-10.235 10.71-9.425 18.425-9.425 18.502.065.565-.36.861-.938.938h-.142l.013.013Z"/><path d="M13.03 27.758c-1.53 0-2.958-.36-4.18-1.067-2.198-1.273-3.78-3.857-4.23-6.905-.578-3.883.669-7.805 3.433-10.762 3.382-3.626 7.368-4.899 11.212-6.12 2.276-.72 4.616-1.479 6.892-2.713.296-.167.656-.167.965-.013.308.154.514.45.565.784.065.463 1.633 11.444-2.546 18.773-2.198 3.844-5.593 6.634-9.321 7.65-.952.257-1.89.386-2.79.386v-.013ZM25.771 2.724c-1.98.926-3.96 1.556-5.877 2.173-3.754 1.196-7.303 2.327-10.324 5.554-2.315 2.482-3.37 5.774-2.894 9.027.36 2.43 1.556 4.448 3.215 5.4 1.466.849 3.382 1.016 5.387.476 3.15-.849 6.16-3.343 8.05-6.66 2.97-5.208 2.712-12.807 2.442-15.97Z"/></g><defs><clipPath id="ka"><path fill="#fff" transform="translate(4.479 .063)" d="M0 0h23.543v31.875H0z"/></clipPath></defs></svg></svg>