<?xml version="1.0" encoding="utf-8"?><svg viewBox="0 0 1321 272" xmlns="http://www.w3.org/2000/svg" xmlns:xlink="http://www.w3.org/1999/xlink"><style>:root>svg{display:none}:root>svg:target{display:block}</style><svg fill="none" viewBox="0 0 49 48" id="Logo_Stacked" xmlns="http://www.w3.org/2000/svg"><path fill-rule="evenodd" clip-rule="evenodd" d="M19.151 9.103v-1.04c-8.856 5.435-4.893 5.565-13.771-.043v12.624a.49.49 0 0 1-.498.498H1.525a.49.49 0 0 1-.498-.498V3.884a.49.49 0 0 1 .498-.498H5.64s.13 0 .173.044c1.126.563 4.915 3.486 6.388 3.42h.238c1.45.087 5.11-2.88 6.214-3.42.065-.044.108-.044.173-.044h4.114a.49.49 0 0 1 .498.498v16.76a.49.49 0 0 1-.497.498h-3.335a.49.49 0 0 1-.498-.498V9.103h.043ZM29.609 19.843c-1.798-1.56-2.815-3.898-2.902-7.038V3.711c0-.152.152-.325.39-.325h3.378c.238 0 .39.173.39.325v9.094c0 2.08.433 3.811 1.667 4.764 1.19.91 2.165 1.17 4.547 1.17 2.382 0 3.356-.26 4.547-1.17 1.234-.953 1.668-2.685 1.668-4.764v-9.05c0-.152.13-.325.39-.325h3.377c.238 0 .39.173.39.324v8.683c0 3.335-1.04 5.803-2.902 7.427-1.883 1.646-3.854 2.534-7.448 2.534-3.595 0-5.565-.888-7.45-2.534M19.02 35.173V28.7H9.751a.573.573 0 0 1-.563-.563v-2.49c0-.303.26-.563.563-.563h13.251c.303 0 .498.238.498.433v9.138c0 3.378-.909 5.608-2.511 7.037-1.603 1.43-3.833 2.382-7.06 2.382-2.88 0-5.175-.628-6.928-1.754-1.711-1.083-2.902-2.967-3.205-6.171a.48.48 0 0 1 .411-.477l3.335-.476a.522.522 0 0 1 .585.39c.194 1.559.584 3.031 1.537 3.92.953.887 2.317.779 4.07.779 1.971 0 3.162 0 4.093-.975.931-.974 1.213-2.49 1.213-4.136M26.145 34.567c0-3.118 1.104-5.63 3.01-7.384 1.905-1.754 4.633-2.771 7.925-2.771 3.29 0 6.02 1.017 7.903 2.771 1.884 1.754 2.988 4.288 2.988 7.384s-1.104 5.608-2.988 7.319c-1.884 1.732-4.612 2.728-7.903 2.728-3.292 0-6.042-1.017-7.926-2.75-1.884-1.732-3.01-4.222-3.01-7.297Zm17.409-.065c0-2.079-.412-3.681-1.516-4.742s-2.772-1.45-4.958-1.45c-2.188 0-3.855.389-4.96 1.45-1.103 1.061-1.515 2.663-1.515 4.742s.412 3.898 1.516 4.959c1.104 1.06 2.771 1.45 4.959 1.45 2.186 0 3.854-.39 4.958-1.45 1.104-1.061 1.516-2.88 1.516-4.959Z" fill="#333"/></svg><svg fill="none" viewBox="0 0 13 12" id="arrow-right" xmlns="http://www.w3.org/2000/svg"><g clip-path="url(#ba)"><path d="M7.724 1.272 12.5 6.024 7.724 10.8H6.14l4.32-4.224H.5V5.424h9.96L6.14 1.2h1.584v.072Z" fill="#FFFEF3"/></g><defs><clipPath id="ba"><path fill="#fff" transform="translate(.5)" d="M0 0h12v12H0z"/></clipPath></defs></svg><svg fill="none" viewBox="0 0 13 13" id="arrow-right-footer" xmlns="http://www.w3.org/2000/svg"><g clip-path="url(#aa)"><path d="m8.005 1.799 4.776 4.752-4.776 4.776H6.421l4.32-4.224H.781V5.95h9.96l-4.32-4.224h1.584v.072Z" fill="#999993"/></g><defs><clipPath id="aa"><path fill="#fff" transform="translate(.781 .527)" d="M0 0h12v12H0z"/></clipPath></defs></svg><svg fill="none" viewBox="0 0 25 25" id="instagram" xmlns="http://www.w3.org/2000/svg"><g clip-path="url(#ca)" fill="#333"><path d="M12.5 2.688c3.206 0 3.586.014 4.847.07 1.172.052 1.805.249 2.226.413a3.71 3.71 0 0 1 1.379.895c.421.422.68.82.895 1.378.164.422.36 1.06.412 2.227.057 1.265.07 1.645.07 4.846 0 3.207-.013 3.586-.07 4.847-.051 1.172-.248 1.805-.412 2.227a3.711 3.711 0 0 1-.895 1.378c-.422.422-.82.68-1.379.895-.421.164-1.059.361-2.226.413-1.266.056-1.645.07-4.847.07-3.206 0-3.586-.014-4.847-.07-1.172-.052-1.805-.249-2.226-.413a3.712 3.712 0 0 1-1.379-.895 3.69 3.69 0 0 1-.895-1.378c-.164-.422-.36-1.06-.412-2.227-.057-1.265-.07-1.645-.07-4.847 0-3.206.013-3.585.07-4.846.051-1.172.248-1.805.412-2.227.216-.558.478-.96.895-1.378a3.69 3.69 0 0 1 1.379-.895c.421-.164 1.059-.361 2.226-.413 1.261-.056 1.64-.07 4.847-.07Zm0-2.161c-3.258 0-3.666.014-4.945.07-1.275.056-2.152.263-2.911.558a5.857 5.857 0 0 0-2.128 1.387 5.88 5.88 0 0 0-1.388 2.124C.833 5.43.627 6.302.57 7.576.514 8.862.5 9.27.5 12.527c0 3.259.014 3.666.07 4.946.057 1.275.263 2.152.558 2.911.31.792.717 1.463 1.388 2.128a5.864 5.864 0 0 0 2.123 1.383c.764.295 1.636.502 2.911.558 1.28.056 1.688.07 4.945.07 3.258 0 3.666-.014 4.946-.07 1.275-.056 2.151-.263 2.91-.558a5.863 5.863 0 0 0 2.124-1.383 5.866 5.866 0 0 0 1.383-2.123c.295-.764.501-1.636.558-2.911.056-1.28.07-1.688.07-4.946 0-3.257-.014-3.665-.07-4.945-.057-1.275-.263-2.151-.558-2.91a5.62 5.62 0 0 0-1.374-2.134 5.866 5.866 0 0 0-2.123-1.382C19.597.864 18.725.658 17.45.602 16.166.54 15.758.527 12.5.527Z"/><path d="M12.5 6.363a6.166 6.166 0 0 0-6.164 6.164A6.166 6.166 0 0 0 12.5 18.69a6.166 6.166 0 0 0 6.164-6.164A6.166 6.166 0 0 0 12.5 6.363Zm0 10.162a3.999 3.999 0 1 1 .001-7.998 3.999 3.999 0 0 1-.001 7.998ZM20.347 6.119a1.44 1.44 0 1 1-2.879 0 1.44 1.44 0 0 1 2.879 0Z"/></g><defs><clipPath id="ca"><path fill="#fff" transform="translate(.5 .527)" d="M0 0h24v24H0z"/></clipPath></defs></svg><svg fill="none" viewBox="0 0 799 172" id="logo-big" xmlns="http://www.w3.org/2000/svg"><path fill-rule="evenodd" clip-rule="evenodd" d="M153.662 51.293V43.78C78.898 89.76 112.313 90.746 37.238 43.34v115.785a3.85 3.85 0 0 1-3.848 3.849H4.352a3.85 3.85 0 0 1-3.848-3.849V5.986a2.954 2.954 0 0 1 2.955-2.955H39.59c.493 0 1.04.128 1.533.438 9.612 4.742 41.476 29.53 53.989 28.91.675-.055 1.35 0 2.043 0 12.33.675 43.209-24.277 52.566-28.91.493-.31.985-.438 1.532-.438h36.425a2.725 2.725 0 0 1 2.718 2.718v153.377a3.85 3.85 0 0 1-3.849 3.849h-28.964a3.85 3.85 0 0 1-3.849-3.849V51.293h-.073ZM248.892 142.2c-15.103-13.242-23.858-32.904-24.533-59.407V5.932c0-1.295 1.168-2.773 3.211-2.773h28.526c2.043 0 3.21 1.478 3.21 2.773V82.72c0 17.51 3.63 32.175 14.118 40.182 9.977 7.697 18.367 9.923 38.394 9.923 20.027 0 28.418-2.28 38.395-9.923 10.415-8.007 14.117-22.672 14.117-40.182V6.17c0-1.295 1.168-2.773 3.21-2.773h28.527c2.043 0 3.21 1.478 3.21 2.773v73.286c0 28.163-8.882 48.937-24.587 62.745-15.832 13.862-32.539 21.322-62.872 21.322-30.332 0-47.094-7.387-62.926-21.322ZM553.092 88.52V33.912h-78.339a4.744 4.744 0 0 1-4.742-4.742V8.157a4.744 4.744 0 0 1 4.742-4.742h111.918c2.59 0 4.195 1.915 4.195 3.63V84.27c0 28.472-7.697 47.459-21.194 59.479-13.625 12.075-32.485 20.027-59.607 20.027-24.405 0-43.757-5.307-58.604-14.792-14.428-9.247-24.405-24.97-27.049-52.202-.183-1.66 1.112-3.575 3.52-3.94l28.162-4.067c2.644-.365 4.614 1.423 4.87 3.265 1.605 13.059 4.924 25.645 12.95 33.032 8.007 7.387 19.662 6.53 34.327 6.53 16.634 0 26.63 0 34.509-8.19 7.898-8.135 10.36-21.085 10.36-34.892h-.018ZM621.166 82.387c0-25.17 8.991-45.636 24.349-59.875C660.89 8.274 682.983 0 709.763 0s48.82 8.274 64.125 22.512c15.253 14.186 24.227 34.634 24.227 59.875s-8.921 45.392-24.174 59.35c-15.306 14.012-37.293 22.04-64.126 22.04-26.832 0-48.872-8.221-64.248-22.284-15.428-14.064-24.419-34.285-24.419-59.106h.018Zm140.968-.472c0-16.845-3.306-29.841-12.297-38.482-8.921-8.572-22.407-11.755-40.127-11.755-17.719 0-31.153 3.183-40.126 11.755-8.991 8.623-12.297 21.567-12.297 38.482s3.306 31.625 12.297 40.249c8.921 8.571 22.407 11.755 40.126 11.755 17.72 0 31.153-3.184 40.127-11.755 8.921-8.624 12.297-23.352 12.297-40.25Z" fill="#333"/></svg><svg fill="none" viewBox="0 0 1321 272" id="logo-footer" xmlns="http://www.w3.org/2000/svg"><path fill-rule="evenodd" clip-rule="evenodd" d="M253.858 85.401V72.968c-123.711 76.086-68.42 77.716-192.644-.724V263.83a6.37 6.37 0 0 1-6.368 6.368H6.798a6.37 6.37 0 0 1-6.368-6.368V10.432a4.888 4.888 0 0 1 4.889-4.889h59.788c.815 0 1.72.211 2.535.724 15.906 7.847 68.632 48.863 89.336 47.837 1.116-.09 2.233 0 3.38 0 20.402 1.117 71.498-40.17 86.981-47.837a4.569 4.569 0 0 1 2.535-.724h60.271a4.508 4.508 0 0 1 4.497 4.497V263.83a6.37 6.37 0 0 1-6.368 6.368h-47.927a6.37 6.37 0 0 1-6.368-6.368V85.401h-.121ZM411.433 235.823c-24.99-21.911-39.476-54.446-40.593-98.299V10.342c0-2.143 1.931-4.588 5.312-4.588h47.203c3.38 0 5.311 2.445 5.311 4.588v127.061c0 28.974 6.006 53.239 23.36 66.489 16.509 12.736 30.392 16.418 63.531 16.418 33.138 0 47.022-3.773 63.531-16.418 17.233-13.25 23.36-37.515 23.36-66.489V10.734c0-2.143 1.931-4.587 5.311-4.587h47.203c3.38 0 5.312 2.444 5.312 4.587v121.267c0 46.599-14.698 80.975-40.684 103.822-26.197 22.937-53.842 35.281-104.033 35.281s-77.927-12.223-104.124-35.281ZM914.79 147.001V56.639H785.163c-4.376 0-7.847-3.561-7.847-7.847V14.024c0-4.376 3.561-7.847 7.847-7.847h185.19c4.285 0 6.941 3.169 6.941 6.006v127.786c0 47.112-12.736 78.53-35.07 98.419-22.545 19.98-53.752 33.139-98.631 33.139-40.382 0-72.404-8.783-96.971-24.477-23.873-15.301-40.382-41.317-44.758-86.377-.302-2.747 1.841-5.916 5.825-6.519l46.599-6.731c4.376-.603 7.636 2.354 8.058 5.403 2.656 21.609 8.149 42.434 21.429 54.657 13.249 12.223 32.535 10.805 56.8 10.805 27.525 0 44.064 0 57.102-13.551 13.069-13.461 17.143-34.889 17.143-57.736h-.03ZM1027.44 136.852c0-41.65 14.87-75.514 40.28-99.075 25.45-23.56 62-37.25 106.32-37.25 44.31 0 80.78 13.69 106.1 37.25 25.24 23.474 40.09 57.309 40.09 99.075 0 41.765-14.76 75.109-40 98.206-25.33 23.184-61.71 36.469-106.11 36.469s-80.87-13.604-106.31-36.874c-25.53-23.271-40.4-56.73-40.4-97.801h.03Zm233.25-.782c0-27.873-5.47-49.378-20.34-63.676-14.77-14.182-37.08-19.45-66.4-19.45-29.32 0-51.55 5.268-66.4 19.45-14.88 14.27-20.35 35.688-20.35 63.676 0 27.989 5.47 52.33 20.35 66.6 14.76 14.182 37.08 19.45 66.4 19.45 29.32 0 51.55-5.268 66.4-19.45 14.76-14.27 20.34-38.64 20.34-66.6Z" fill="#333"/></svg><svg fill="none" viewBox="0 0 49 48" id="logo-img" xmlns="http://www.w3.org/2000/svg"><path fill-rule="evenodd" clip-rule="evenodd" d="M19.151 9.103v-1.04c-8.856 5.435-4.893 5.565-13.771-.043v12.624a.49.49 0 0 1-.498.498H1.525a.49.49 0 0 1-.498-.498V3.884a.49.49 0 0 1 .498-.498H5.64s.13 0 .173.044c1.126.563 4.915 3.486 6.388 3.42h.238c1.45.087 5.11-2.88 6.214-3.42.065-.044.108-.044.173-.044h4.114a.49.49 0 0 1 .498.498v16.76a.49.49 0 0 1-.497.498h-3.335a.49.49 0 0 1-.498-.498V9.103h.043ZM29.609 19.843c-1.798-1.56-2.815-3.898-2.902-7.038V3.711c0-.152.152-.325.39-.325h3.378c.238 0 .39.173.39.325v9.094c0 2.08.433 3.811 1.667 4.764 1.19.91 2.165 1.17 4.547 1.17 2.382 0 3.356-.26 4.547-1.17 1.234-.953 1.668-2.685 1.668-4.764v-9.05c0-.152.13-.325.39-.325h3.377c.238 0 .39.173.39.324v8.683c0 3.335-1.04 5.803-2.902 7.427-1.883 1.646-3.854 2.534-7.448 2.534-3.595 0-5.565-.888-7.45-2.534M19.02 35.173V28.7H9.751a.573.573 0 0 1-.563-.563v-2.49c0-.303.26-.563.563-.563h13.251c.303 0 .498.238.498.433v9.138c0 3.378-.909 5.608-2.511 7.037-1.603 1.43-3.833 2.382-7.06 2.382-2.88 0-5.175-.628-6.928-1.754-1.711-1.083-2.902-2.967-3.205-6.171a.48.48 0 0 1 .411-.477l3.335-.476a.522.522 0 0 1 .585.39c.194 1.559.584 3.031 1.537 3.92.953.887 2.317.779 4.07.779 1.971 0 3.162 0 4.093-.975.931-.974 1.213-2.49 1.213-4.136M26.145 34.567c0-3.118 1.104-5.63 3.01-7.384 1.905-1.754 4.633-2.771 7.925-2.771 3.29 0 6.02 1.017 7.903 2.771 1.884 1.754 2.988 4.288 2.988 7.384s-1.104 5.608-2.988 7.319c-1.884 1.732-4.612 2.728-7.903 2.728-3.292 0-6.042-1.017-7.926-2.75-1.884-1.732-3.01-4.222-3.01-7.297Zm17.409-.065c0-2.079-.412-3.681-1.516-4.742s-2.772-1.45-4.958-1.45c-2.188 0-3.855.389-4.96 1.45-1.103 1.061-1.515 2.663-1.515 4.742s.412 3.898 1.516 4.959c1.104 1.06 2.771 1.45 4.959 1.45 2.186 0 3.854-.39 4.958-1.45 1.104-1.061 1.516-2.88 1.516-4.959Z" fill="#333"/></svg></svg>