<?xml version="1.0" encoding="utf-8"?><svg viewBox="0 0 49 48" xmlns="http://www.w3.org/2000/svg" xmlns:xlink="http://www.w3.org/1999/xlink"><style>:root>svg{display:none}:root>svg:target{display:block}</style><svg fill="none" viewBox="0 0 13 12" id="arrow-right" xmlns="http://www.w3.org/2000/svg"><g clip-path="url(#aa)"><path d="M7.724 1.272 12.5 6.024 7.724 10.8H6.14l4.32-4.224H.5V5.424h9.96L6.14 1.2h1.584v.072Z" fill="#FFFEF3"/></g><defs><clipPath id="aa"><path fill="#fff" transform="translate(.5)" d="M0 0h12v12H0z"/></clipPath></defs></svg><svg class="logo__img" viewBox="0 0 49 48" id="logo-img" xmlns="http://www.w3.org/2000/svg"><path clip-rule="evenodd" d="M19.151 9.103v-1.04c-8.856 5.435-4.893 5.565-13.771-.043v12.624a.49.49 0 0 1-.498.498H1.525a.49.49 0 0 1-.498-.498V3.884a.49.49 0 0 1 .498-.498H5.64s.13 0 .173.044c1.126.563 4.915 3.486 6.388 3.42h.238c1.45.087 5.11-2.88 6.214-3.42.065-.044.108-.044.173-.044h4.114a.49.49 0 0 1 .498.498v16.76a.49.49 0 0 1-.497.498h-3.335a.49.49 0 0 1-.498-.498V9.103h.043ZM29.609 19.843c-1.798-1.56-2.815-3.898-2.902-7.038V3.711c0-.152.152-.325.39-.325h3.378c.238 0 .39.173.39.325v9.094c0 2.08.433 3.811 1.667 4.764 1.19.91 2.165 1.17 4.547 1.17 2.382 0 3.356-.26 4.547-1.17 1.234-.953 1.668-2.685 1.668-4.764v-9.05c0-.152.13-.325.39-.325h3.377c.238 0 .39.173.39.324v8.683c0 3.335-1.04 5.803-2.902 7.427-1.883 1.646-3.854 2.534-7.448 2.534-3.595 0-5.565-.888-7.45-2.534M19.02 35.173V28.7H9.751a.573.573 0 0 1-.563-.563v-2.49c0-.303.26-.563.563-.563h13.251c.303 0 .498.238.498.433v9.138c0 3.378-.909 5.608-2.511 7.037-1.603 1.43-3.833 2.382-7.06 2.382-2.88 0-5.175-.628-6.928-1.754-1.711-1.083-2.902-2.967-3.205-6.171a.48.48 0 0 1 .411-.477l3.335-.476a.522.522 0 0 1 .585.39c.194 1.559.584 3.031 1.537 3.92.953.887 2.317.779 4.07.779 1.971 0 3.162 0 4.093-.975.931-.974 1.213-2.49 1.213-4.136M26.145 34.567c0-3.118 1.104-5.63 3.01-7.384 1.905-1.754 4.633-2.771 7.925-2.771 3.29 0 6.02 1.017 7.903 2.771 1.884 1.754 2.988 4.288 2.988 7.384s-1.104 5.608-2.988 7.319c-1.884 1.732-4.612 2.728-7.903 2.728-3.292 0-6.042-1.017-7.926-2.75-1.884-1.732-3.01-4.222-3.01-7.297Zm17.409-.065c0-2.079-.412-3.681-1.516-4.742s-2.772-1.45-4.958-1.45c-2.188 0-3.855.389-4.96 1.45-1.103 1.061-1.515 2.663-1.515 4.742s.412 3.898 1.516 4.959c1.104 1.06 2.771 1.45 4.959 1.45 2.186 0 3.854-.39 4.958-1.45 1.104-1.061 1.516-2.88 1.516-4.959Z"/></svg></svg>