<svg width="33" height="32" viewBox="0 0 33 32" fill="none" xmlns="http://www.w3.org/2000/svg">
<g clip-path="url(#clip0_1_3249)">
<path d="M8.85022 31.9371C8.3359 31.9371 7.91159 31.7828 7.8473 31.2557C7.79587 30.9085 6.81867 22.5637 17.825 11.043C18.5451 10.2973 20.0109 8.98576 21.5795 7.2628C21.901 6.91564 22.441 6.63276 22.8139 6.94135C23.1739 7.24994 22.9682 7.93141 22.621 8.4843C21.7981 9.79581 20.0366 11.7502 19.3423 12.4831C9.10737 23.1938 9.91742 30.9085 9.91742 30.9856C9.98171 31.5514 9.5574 31.8471 8.97879 31.9243C8.92736 31.9243 8.88879 31.9243 8.83736 31.9243L8.85022 31.9371Z" fill="#787C63"/>
<path d="M13.0293 27.7581C11.4992 27.7581 10.072 27.3981 8.85047 26.6909C6.65177 25.418 5.07025 22.8335 4.62022 19.7862C4.04161 15.9031 5.28883 11.9814 8.05328 9.02413C11.4349 5.39819 15.4209 4.12526 19.2654 2.90376C21.5412 2.18372 23.8814 1.4251 26.1572 0.190741C26.4529 0.023588 26.813 0.023588 27.1216 0.177883C27.4301 0.332178 27.6359 0.62791 27.6873 0.962215C27.7516 1.4251 29.3203 12.4058 25.1414 19.7348C22.9427 23.5793 19.5483 26.3694 15.8195 27.3852C14.868 27.6424 13.9293 27.771 13.0293 27.771V27.7581ZM25.7715 2.72375C23.7914 3.64952 21.8112 4.27956 19.8954 4.89674C16.1409 6.09252 12.5921 7.22402 9.57051 10.4514C7.25609 12.9329 6.20174 16.2246 6.67748 19.4776C7.03751 21.9078 8.23329 23.9264 9.89196 24.8779C11.3578 25.7266 13.2736 25.8937 15.2794 25.3537C18.4296 24.5051 21.4384 22.0106 23.3285 18.6933C26.2987 13.4858 26.0415 5.8868 25.7715 2.72375Z" fill="#787C63"/>
</g>
<defs>
<clipPath id="clip0_1_3249">
<rect width="23.5428" height="31.8748" fill="white" transform="translate(4.47852 0.0625)"/>
</clipPath>
</defs>
</svg>
